<svg xmlns="http://www.w3.org/2000/svg" viewBox="0 0 983.14 998.2">
  <defs>
    <style>
      <!-- Biere -->
      #Biere {
        -webkit-animation: remplissage 4s;
        animation: remplissage 4s;
        -webkit-transform-origin:  50% 100%;
        transform-origin:  50% 100%;
      }

      <!-- Annimation de la biere -->
      @-webkit-keyframes remplissage {
          0% {
            -webkit-transform:  scale(1, 0);
            transform:  scale(1, 0);
            transform-box:  fill-box;
          }
          100% {
            -webkit-transform:  scale(1, 1);
            transform:  scale(1, 1);
            transform-box:  fill-box;
          }
        }
        @keyframes remplissage {
          0% {
            -webkit-transform:  scale(1, 0);
            transform:  scale(0.9, 0);
            transform-box:  fill-box;
          }
          100% {
            -webkit-transform:  scale(1, 1);
            transform:  scale(1, 1);
            transform-box:  fill-box;
          }
        }
      
      <!-- Liquide -->
      .cls-1 {
        fill: #fcee21;
      }

      <!-- Ballon -->
      .cls-4 {
        fill-rule: evenodd;
      }

      <!-- "Passion" -->
      .cls-5 {
        font-size: 241.8px;
        font-family: Offside-Regular, Offside;
      }
    </style>
  </defs>
  <title>splash</title>
  <g id="XV">
    <g id="Biere" data-animator-group="true">
      <path id="Liquide" class="cls-1" d="M1461.38,1152c143.12,0,142.41.18,285.52.18-38.36,234.19-52.71,323.93-76.39,469.71-1.62,9.94-5,41.53-19.41,59.06-10.69,13-33,15.46-47.31,15-6.3-.21-36.33,1-46.52-16-15.46-25.78-18-46.28-19.87-58C1512.16,1466.51,1497.87,1376.67,1461.38,1152Z" transform="translate(-867 -761)"/>
    </g>
    <g id="Ballon" data-name="Ballon">
      <path class="cls-4" d="M1106.73,1238.73c-9-14.54-21.32-25.81-34.19-31.61a15.82,15.82,0,0,0-3.82,6.86c-2.54,9.36-1.41,19.54,12.06,41.3,12.43,20.08,21.22,25.68,30.6,27.91h0a18.71,18.71,0,0,0,8.34-.09c0-.24,0-.48,0-.72C1120.1,1268.33,1115.45,1252.83,1106.73,1238.73ZM1033,1237.6a14.52,14.52,0,0,0-10.5.26c0,.43-.05.85-.05,1.29-.3,14,4.34,29.56,13.06,43.66,9.35,15.09,22.27,26.66,35.67,32.24,1.94-1.15,4.17-3.4,4.8-7.79,1.47-10.16-2.4-21.07-14.28-40.25C1049.13,1246.78,1041.12,1240.62,1033,1237.6Zm77.07,51.55,0,0c-12.84-3.05-22.81-11.93-34.39-30.64-12.81-20.69-16.27-33.19-12.76-46.11a22,22,0,0,1,3.66-7.56c-1.07-.33-2.13-.63-3.19-.88-9.46-2.22-18.22-1.08-25.32,3.31-7.9,4.89-13,13.26-14.84,24a20,20,0,0,1,11.94.61c9.35,3.46,18.34,10.21,31.78,31.92,12.73,20.56,16.83,32.58,15.13,44.34a17,17,0,0,1-4.14,9.19c.35.1.71.19,1.07.27,9.45,2.23,18.21,1.09,25.31-3.31,8.1-5,13.27-13.69,15-24.84A24.22,24.22,0,0,1,1110,1289.15Z" transform="translate(-867 -761)"/>
    </g>
    <g id="Lettres">
      <path id="X" d="M1294,1733.41q0,16.59-28.21,16.58t-33.93-21.19l-61.33-229.47q-9.81-37.78-26.16-54.83t-49.89-17q-33.53,0-49.88,17t-26.17,54.83L957.06,1728.8q-5.73,21.2-33.93,21.19t-28.21-16.58q0-.92,63-244.21,10.64-39.63,22.9-61.29a81,81,0,0,1,33.52-32.72q-20.44-10.12-32.71-32.24t-23.71-61.75q-63-222.09-63-225.78,0-16.58,28.21-16.58T957.06,1080l61.33,211q10.64,37.77,26.58,54.83t49.47,17q33.54,0,49.48-17t26.57-54.83l61.33-211q5.72-21.18,33.93-21.18t28.21,16.58q0,3.69-63,225.78-11.45,39.63-23.71,61.75t-32.71,32.24a80.91,80.91,0,0,1,33.52,32.72q12.27,21.67,22.9,61.29Q1294,1732.49,1294,1733.41Z" transform="translate(-867 -761)"/>
      <path id="V" d="M1694.65,1730.18q-26.18,29-90.78,29t-90.76-29q-26.16-29-37.61-97.22l-88.31-544.64a87.1,87.1,0,0,1-1.64-12.9q0-16.58,31.07-16.58T1451,1080l14.29,87.83q37,227.49,74,455a155.85,155.85,0,0,0,7.46,33.76q4.6,13.93,10.94,22,12.66,16.13,46.19,16.12t46.21-16.12q12.68-16.14,18.4-55.77L1756.8,1080q3.27-21.18,34.34-21.18t31.08,16.58a87.1,87.1,0,0,1-1.64,12.9L1732.27,1633Q1720.81,1701.15,1694.65,1730.18Z" transform="translate(-867 -761)"/>
    </g>
  </g>
  <g id="Passion">
    <text class="cls-5" transform="translate(0 210.36)">Passion</text>
  </g>
</svg>
